<svg width="272" height="267" viewBox="0 0 272 267" fill="none" xmlns="http://www.w3.org/2000/svg">
<g filter="url(#filter0_d_27_23)">
<path d="M30 9.99999C24.4772 9.99999 20 14.4771 20 20C20 25.5228 24.4772 30 30 30L30 9.99999ZM178 120L168 120L178 120ZM170.929 234.071C174.834 237.976 181.166 237.976 185.071 234.071L248.711 170.431C252.616 166.526 252.616 160.195 248.711 156.289C244.805 152.384 238.474 152.384 234.569 156.289L178 212.858L121.431 156.289C117.526 152.384 111.195 152.384 107.289 156.289C103.384 160.195 103.384 166.526 107.289 170.431L170.929 234.071ZM30 30L78 30L78 10L30 9.99999L30 30ZM168 120L168 227L188 227L188 120L168 120ZM78 30C127.706 30 168 70.2944 168 120L188 120C188 59.2487 138.751 10 78 10L78 30Z" fill="white"/>
</g>
<defs>
<filter id="filter0_d_27_23" x="0" y="0" width="271.64" height="267" filterUnits="userSpaceOnUse" color-interpolation-filters="sRGB">
<feFlood flood-opacity="0" result="BackgroundImageFix"/>
<feColorMatrix in="SourceAlpha" type="matrix" values="0 0 0 0 0 0 0 0 0 0 0 0 0 0 0 0 0 0 127 0" result="hardAlpha"/>
<feOffset dy="10"/>
<feGaussianBlur stdDeviation="10"/>
<feComposite in2="hardAlpha" operator="out"/>
<feColorMatrix type="matrix" values="0 0 0 0 0 0 0 0 0 0 0 0 0 0 0 0 0 0 0.25 0"/>
<feBlend mode="normal" in2="BackgroundImageFix" result="effect1_dropShadow_27_23"/>
<feBlend mode="normal" in="SourceGraphic" in2="effect1_dropShadow_27_23" result="shape"/>
</filter>
</defs>
</svg>
