<svg width="11" height="20" viewBox="0 0 11 20" fill="none" xmlns="http://www.w3.org/2000/svg">
<g id="Arrow" clip-path="url(#clip0_1_27)">
<path id="Vector" fill-rule="evenodd" clip-rule="evenodd" d="M0.366001 19.708C0.771001 20.098 1.426 20.098 1.83 19.708L10.393 11.444C10.5847 11.2618 10.7373 11.0426 10.8416 10.7996C10.9459 10.5566 10.9997 10.2949 10.9997 10.0305C10.9997 9.76607 10.9459 9.5044 10.8416 9.26141C10.7373 9.01841 10.5847 8.79917 10.393 8.61701L1.768 0.292005C1.57225 0.105953 1.31303 0.00137894 1.04298 -0.000478371C0.772924 -0.00233569 0.512288 0.0986628 0.314001 0.282005C0.215773 0.372546 0.137177 0.482287 0.0830813 0.604434C0.0289856 0.726582 0.000541472 0.858534 -0.000489719 0.99212C-0.00152091 1.12571 0.0248828 1.25808 0.0770864 1.38105C0.12929 1.50402 0.206182 1.61496 0.303001 1.70701L8.197 9.32401C8.29292 9.41509 8.3693 9.52475 8.42149 9.64629C8.47369 9.76783 8.5006 9.89873 8.5006 10.031C8.5006 10.1633 8.47369 10.2942 8.42149 10.4157C8.3693 10.5373 8.29292 10.6469 8.197 10.738L0.366001 18.295C0.270111 18.386 0.193749 18.4956 0.141567 18.617C0.0893843 18.7385 0.0624735 18.8693 0.0624735 19.0015C0.0624735 19.1337 0.0893843 19.2645 0.141567 19.386C0.193749 19.5074 0.270111 19.617 0.366001 19.708Z" fill="black"/>
</g>
<defs>
<clipPath id="clip0_1_27">
<rect width="11" height="20" fill="white"/>
</clipPath>
</defs>
</svg>
