<?xml version="1.0" encoding="UTF-8" standalone="no"?>
<svg
   xmlns:dc="http://purl.org/dc/elements/1.1/"
   xmlns:cc="http://creativecommons.org/ns#"
   xmlns:rdf="http://www.w3.org/1999/02/22-rdf-syntax-ns#"
   xmlns:svg="http://www.w3.org/2000/svg"
   xmlns="http://www.w3.org/2000/svg"
   viewBox="0 0 277.33334 273.33334"
   height="273.33334"
   width="277.33334"
   xml:space="preserve"
   id="svg2"
   version="1.1"><metadata
     id="metadata8"><rdf:RDF><cc:Work
         rdf:about=""><dc:format>image/svg+xml</dc:format><dc:type
           rdf:resource="http://purl.org/dc/dcmitype/StillImage" /></cc:Work></rdf:RDF></metadata><defs
     id="defs6"><clipPath
       id="clipPath18"
       clipPathUnits="userSpaceOnUse"><path
         id="path16"
         d="M 0.06,204.687 H 207.765 V 0.06 H 0.06 Z" /></clipPath></defs><g
     transform="matrix(1.3333333,0,0,-1.3333333,0,273.33333)"
     id="g10"><g
       id="g12"><g
         clip-path="url(#clipPath18)"
         id="g14"><path
           id="path20"
           style="fill:#ffffff;fill-opacity:1;fill-rule:nonzero;stroke:none"
           d="m 103.834,2.356 c 52.59,0.041 97.892,42.105 101.391,97.267 3.434,55.052 -41.811,102.72 -101.3,102.708 C 44.441,202.4 -0.856,154.773 2.535,99.718 5.98,44.546 51.24,2.447 103.834,2.356" /><path
           id="path22"
           style="fill:none;stroke:#180f0e;stroke-width:4.71299982;stroke-linecap:butt;stroke-linejoin:miter;stroke-miterlimit:4;stroke-dasharray:none;stroke-opacity:1"
           d="m 103.834,2.356 c 52.59,0.041 97.892,42.105 101.391,97.267 3.434,55.052 -41.811,102.72 -101.3,102.708 C 44.441,202.4 -0.856,154.773 2.535,99.718 5.98,44.546 51.24,2.447 103.834,2.356 Z" /></g></g><path
       id="path24"
       style="fill:#240000;fill-opacity:1;fill-rule:nonzero;stroke:none"
       d="m 169.625,168.531 c 11.403,-10.869 19.64,-24.147 23.667,-38.572 C 203.511,94.951 189.781,58.299 164.288,35.375 142.997,17.685 117.892,8.759 89.846,13.05 59.211,17.11 29.6,40.895 17.547,70.392 c -14.149,34.095 -6.083,74.56 21.498,99.141 23.069,21.334 57.481,30.768 90.116,21.738 15.251,-4.109 29.024,-11.538 40.464,-22.74" /><path
       id="path26"
       style="fill:#f9a720;fill-opacity:1;fill-rule:nonzero;stroke:none"
       d="m 159.539,127.329 c 7.345,-16.134 5.836,-38.845 -3.704,-53.655 C 148.154,60.66 135.202,51.043 121.673,46.175 100.62,39.961 77.507,44.96 61.931,60.164 c -17.454,15.8 -24.172,42.886 -15.243,65.14 8.242,21.409 30.839,36.593 54.967,37.477 25.613,1.005 48.27,-13.847 57.884,-35.452" /><path
       id="path28"
       style="fill:none;stroke:#ffffff;stroke-width:4;stroke-linecap:butt;stroke-linejoin:miter;stroke-miterlimit:4;stroke-dasharray:none;stroke-opacity:1"
       d="m 159.539,127.329 c 7.345,-16.134 5.836,-38.845 -3.704,-53.655 C 148.154,60.66 135.202,51.043 121.673,46.175 100.62,39.961 77.507,44.96 61.931,60.164 c -17.454,15.8 -24.172,42.886 -15.243,65.14 8.242,21.409 30.839,36.593 54.967,37.477 25.613,1.005 48.27,-13.847 57.884,-35.452 z" /><path
       id="path30"
       style="fill:#ffffff;fill-opacity:1;fill-rule:nonzero;stroke:none"
       d="m 30.698,122.474 c -3.429,1.846 -6.733,3.685 -10.181,5.516 0.635,2.402 1.311,4.809 1.905,7.212 5.776,-1.406 11.4,-2.835 17.147,-4.289 -0.436,-1.425 -0.736,-2.848 -1.169,-4.273 -4.135,1.068 -8.412,2.118 -12.566,3.16 3.823,-2.291 7.721,-4.592 11.56,-6.906 -0.348,-1.281 -0.661,-2.561 -1.056,-3.844 -4.408,-0.221 -8.815,-0.459 -13.219,-0.711 4.08,-1.013 8.11,-2.039 12.229,-3.072 -0.386,-1.441 -0.811,-2.881 -1.152,-4.316 -5.691,1.435 -11.265,2.853 -16.985,4.24 0.542,2.293 1.225,4.589 1.773,6.879 3.95,0.15 7.766,0.278 11.714,0.404" /><path
       id="path32"
       style="fill:none;stroke:#ffffff;stroke-width:0.78600001;stroke-linecap:butt;stroke-linejoin:miter;stroke-miterlimit:4;stroke-dasharray:none;stroke-opacity:1"
       d="m 30.698,122.474 c -3.429,1.846 -6.733,3.685 -10.181,5.516 0.635,2.402 1.311,4.809 1.905,7.212 5.776,-1.406 11.4,-2.835 17.147,-4.289 -0.436,-1.425 -0.736,-2.848 -1.169,-4.273 -4.135,1.068 -8.412,2.118 -12.566,3.16 3.823,-2.291 7.721,-4.592 11.56,-6.906 -0.348,-1.281 -0.661,-2.561 -1.056,-3.844 -4.408,-0.221 -8.815,-0.459 -13.219,-0.711 4.08,-1.013 8.11,-2.039 12.229,-3.072 -0.386,-1.441 -0.811,-2.881 -1.152,-4.316 -5.691,1.435 -11.265,2.853 -16.985,4.24 0.542,2.293 1.225,4.589 1.773,6.879 3.95,0.15 7.766,0.278 11.714,0.404 z" /><path
       id="path34"
       style="fill:#ffffff;fill-opacity:1;fill-rule:nonzero;stroke:none"
       d="m 31.447,142.761 c -0.076,0.618 0.008,0.758 0.34,1.288 0.258,0.503 0.604,1.008 0.909,1.512 0.204,0.42 0.46,0.711 0.897,0.925 0.738,0.347 1.395,0.177 2.113,-0.217 1.626,-0.877 3.119,-1.754 4.741,-2.635 0.595,-0.329 0.963,-0.638 1.122,-1.32 0.174,-0.516 -0.098,-1.142 -0.283,-1.455 -0.354,-0.582 -0.657,-1.159 -1.055,-1.74 -0.216,-0.367 -0.882,-0.856 -1.468,-0.948 -0.485,-0.068 -1.438,0.465 -1.754,0.633 -1.488,0.806 -2.891,1.611 -4.338,2.413 -0.581,0.341 -1.258,0.851 -1.224,1.544 z m -3.489,2.529 c -0.411,-0.617 -1.401,-2.576 -1.007,-4.261 0.437,-1.83 1.97,-3.078 3.259,-3.79 1.583,-0.848 3.071,-1.702 4.607,-2.556 1.433,-0.777 3.351,-1.418 5.314,-0.815 1.625,0.513 2.818,2.111 3.227,2.844 0.538,0.897 1.083,1.789 1.625,2.683 0.943,1.575 1.266,2.821 0.941,4.673 -0.154,1.265 -1.432,2.374 -2.612,3.039 -1.829,1.055 -3.799,2.103 -5.633,3.154 -1.316,0.703 -3.167,1.254 -4.845,0.715 -1.585,-0.473 -2.805,-2.248 -3.209,-2.867 -0.51,-0.938 -1.115,-1.877 -1.667,-2.819" /><path
       id="path36"
       style="fill:none;stroke:#ffffff;stroke-width:0.78600001;stroke-linecap:butt;stroke-linejoin:miter;stroke-miterlimit:4;stroke-dasharray:none;stroke-opacity:1"
       d="m 31.447,142.761 c -0.076,0.618 0.008,0.758 0.34,1.288 0.258,0.503 0.604,1.008 0.909,1.512 0.204,0.42 0.46,0.711 0.897,0.925 0.738,0.347 1.395,0.177 2.113,-0.217 1.626,-0.877 3.119,-1.754 4.741,-2.635 0.595,-0.329 0.963,-0.638 1.122,-1.32 0.174,-0.516 -0.098,-1.142 -0.283,-1.455 -0.354,-0.582 -0.657,-1.159 -1.055,-1.74 -0.216,-0.367 -0.882,-0.856 -1.468,-0.948 -0.485,-0.068 -1.438,0.465 -1.754,0.633 -1.488,0.806 -2.891,1.611 -4.338,2.413 -0.581,0.341 -1.258,0.851 -1.224,1.544 z m -3.489,2.529 c -0.411,-0.617 -1.401,-2.576 -1.007,-4.261 0.437,-1.83 1.97,-3.078 3.259,-3.79 1.583,-0.848 3.071,-1.702 4.607,-2.556 1.433,-0.777 3.351,-1.418 5.314,-0.815 1.625,0.513 2.818,2.111 3.227,2.844 0.538,0.897 1.083,1.789 1.625,2.683 0.943,1.575 1.266,2.821 0.941,4.673 -0.154,1.265 -1.432,2.374 -2.612,3.039 -1.829,1.055 -3.799,2.103 -5.633,3.154 -1.316,0.703 -3.167,1.254 -4.845,0.715 -1.585,-0.473 -2.805,-2.248 -3.209,-2.867 -0.51,-0.938 -1.115,-1.877 -1.667,-2.819 z" /><path
       id="path38"
       style="fill:#ffffff;fill-opacity:1;fill-rule:nonzero;stroke:none"
       d="m 47.491,159.944 c -0.247,0.223 -0.496,0.448 -0.745,0.673 -0.29,0.248 -0.534,0.41 -0.862,0.456 -0.688,0.071 -1.089,-0.37 -1.49,-0.74 -0.327,-0.298 -0.523,-0.586 -0.852,-0.883 -0.404,-0.427 -0.77,-0.781 -0.806,-1.326 -0.096,-0.824 0.531,-1.526 1.058,-1.994 1.173,-1.02 2.255,-2.045 3.377,-3.064 0.594,-0.558 1.136,-0.912 1.895,-0.91 0.98,-0.004 1.501,0.529 1.844,0.879 0.222,0.23 0.494,0.46 0.673,0.691 0.202,0.191 0.671,0.617 0.725,1.16 0.132,0.559 -0.095,1.029 -0.548,1.442 -0.312,0.242 -0.491,0.49 -0.806,0.733 1.031,1.038 2.06,2.077 3.094,3.11 0.434,-0.396 0.867,-0.795 1.299,-1.189 1.023,-0.872 1.543,-1.524 1.845,-2.756 0.355,-2.048 -1.254,-3.714 -2.767,-5.195 -0.262,-0.214 -0.429,-0.428 -0.647,-0.643 -0.871,-0.894 -2.886,-2.803 -4.77,-2.816 -2.009,-0.016 -3.739,1.007 -4.747,1.932 -1.309,1.191 -2.572,2.384 -3.933,3.57 -1.376,1.29 -2.331,2.266 -2.373,4.252 -0.074,1.967 1.675,3.71 2.281,4.345 0.536,0.491 0.934,0.985 1.469,1.475 0.852,0.871 2.006,2.287 3.926,2.482 1.649,0.207 2.869,-0.467 4.048,-1.615 0.378,-0.293 0.618,-0.59 0.995,-0.881 -1.064,-1.062 -2.124,-2.127 -3.183,-3.188" /><path
       id="path40"
       style="fill:none;stroke:#ffffff;stroke-width:0.78600001;stroke-linecap:butt;stroke-linejoin:miter;stroke-miterlimit:4;stroke-dasharray:none;stroke-opacity:1"
       d="m 47.491,159.944 c -0.247,0.223 -0.496,0.448 -0.745,0.673 -0.29,0.248 -0.534,0.41 -0.862,0.456 -0.688,0.071 -1.089,-0.37 -1.49,-0.74 -0.327,-0.298 -0.523,-0.586 -0.852,-0.883 -0.404,-0.427 -0.77,-0.781 -0.806,-1.326 -0.096,-0.824 0.531,-1.526 1.058,-1.994 1.173,-1.02 2.255,-2.045 3.377,-3.064 0.594,-0.558 1.136,-0.912 1.895,-0.91 0.98,-0.004 1.501,0.529 1.844,0.879 0.222,0.23 0.494,0.46 0.673,0.691 0.202,0.191 0.671,0.617 0.725,1.16 0.132,0.559 -0.095,1.029 -0.548,1.442 -0.312,0.242 -0.491,0.49 -0.806,0.733 1.031,1.038 2.06,2.077 3.094,3.11 0.434,-0.396 0.867,-0.795 1.299,-1.189 1.023,-0.872 1.543,-1.524 1.845,-2.756 0.355,-2.048 -1.254,-3.714 -2.767,-5.195 -0.262,-0.214 -0.429,-0.428 -0.647,-0.643 -0.871,-0.894 -2.886,-2.803 -4.77,-2.816 -2.009,-0.016 -3.739,1.007 -4.747,1.932 -1.309,1.191 -2.572,2.384 -3.933,3.57 -1.376,1.29 -2.331,2.266 -2.373,4.252 -0.074,1.967 1.675,3.71 2.281,4.345 0.536,0.491 0.934,0.985 1.469,1.475 0.852,0.871 2.006,2.287 3.926,2.482 1.649,0.207 2.869,-0.467 4.048,-1.615 0.378,-0.293 0.618,-0.59 0.995,-0.881 -1.064,-1.062 -2.124,-2.127 -3.183,-3.188 z" /><path
       id="path42"
       style="fill:#ffffff;fill-opacity:1;fill-rule:nonzero;stroke:none"
       d="m 62.965,171.024 c -1.167,1.811 -2.427,3.619 -3.647,5.427 1.374,0.836 2.796,1.669 4.126,2.502 3.244,-4.833 6.458,-9.672 9.652,-14.518 -1.325,-0.82 -2.742,-1.645 -4.106,-2.466 -1.246,1.874 -2.491,3.749 -3.739,5.62 -1.627,-1.016 -3.341,-2.035 -5.007,-3.056 1.252,-1.867 2.505,-3.741 3.747,-5.608 -1.373,-0.842 -2.745,-1.68 -4.114,-2.523 -3.214,4.823 -6.449,9.633 -9.711,14.436 1.381,0.827 2.628,1.652 4.016,2.476 1.266,-1.805 2.394,-3.61 3.654,-5.416 1.706,1.045 3.415,2.086 5.129,3.126" /><path
       id="path44"
       style="fill:none;stroke:#ffffff;stroke-width:0.78600001;stroke-linecap:butt;stroke-linejoin:miter;stroke-miterlimit:4;stroke-dasharray:none;stroke-opacity:1"
       d="m 62.965,171.024 c -1.167,1.811 -2.427,3.619 -3.647,5.427 1.374,0.836 2.796,1.669 4.126,2.502 3.244,-4.833 6.458,-9.672 9.652,-14.518 -1.325,-0.82 -2.742,-1.645 -4.106,-2.466 -1.246,1.874 -2.491,3.749 -3.739,5.62 -1.627,-1.016 -3.341,-2.035 -5.007,-3.056 1.252,-1.867 2.505,-3.741 3.747,-5.608 -1.373,-0.842 -2.745,-1.68 -4.114,-2.523 -3.214,4.823 -6.449,9.633 -9.711,14.436 1.381,0.827 2.628,1.652 4.016,2.476 1.266,-1.805 2.394,-3.61 3.654,-5.416 1.706,1.045 3.415,2.086 5.129,3.126 z" /><path
       id="path46"
       style="fill:#ffffff;fill-opacity:1;fill-rule:nonzero;stroke:none"
       d="m 77.717,172.734 c -0.15,2.388 -0.303,4.777 -0.455,7.168 1.459,-1.989 2.915,-3.978 4.368,-5.967 -1.302,-0.399 -2.609,-0.799 -3.913,-1.201 z m 0.57,-6.525 c -0.076,0.995 -0.149,1.987 -0.22,2.977 1.914,0.578 3.684,1.147 5.601,1.718 0.588,-0.836 1.172,-1.67 1.753,-2.506 1.597,0.485 3.239,0.967 4.789,1.449 -3.616,4.92 -7.257,9.824 -10.928,14.726 -2.281,-0.683 -4.473,-1.369 -6.704,-2.061 0.34,-5.919 0.669,-11.841 0.997,-17.762 1.572,0.49 3.139,0.972 4.712,1.459" /><path
       id="path48"
       style="fill:none;stroke:#ffffff;stroke-width:0.78600001;stroke-linecap:butt;stroke-linejoin:miter;stroke-miterlimit:4;stroke-dasharray:none;stroke-opacity:1"
       d="m 77.717,172.734 c -0.15,2.388 -0.303,4.777 -0.455,7.168 1.459,-1.989 2.915,-3.978 4.368,-5.967 -1.302,-0.399 -2.609,-0.799 -3.913,-1.201 z m 0.57,-6.525 c -0.076,0.995 -0.149,1.987 -0.22,2.977 1.914,0.578 3.684,1.147 5.601,1.718 0.588,-0.836 1.172,-1.67 1.753,-2.506 1.597,0.485 3.239,0.967 4.789,1.449 -3.616,4.92 -7.257,9.824 -10.928,14.726 -2.281,-0.683 -4.473,-1.369 -6.704,-2.061 0.34,-5.919 0.669,-11.841 0.997,-17.762 1.572,0.49 3.139,0.972 4.712,1.459 z" /><path
       id="path50"
       style="fill:#ffffff;fill-opacity:1;fill-rule:nonzero;stroke:none"
       d="m 100.742,180.735 c 2.411,0.014 4.824,0.024 7.235,0.033 -0.037,-1.067 0.062,-2.134 0.022,-3.2 -2.371,-0.008 -4.883,-0.019 -7.256,-0.033 0.057,-1.11 0.025,-2.221 0.035,-3.331 2.712,0.018 5.292,0.032 8.005,0.036 -0.004,-1.266 -0.008,-2.531 -0.012,-3.795 -4.219,-0.012 -8.569,-0.035 -12.792,-0.074 -0.06,5.724 -0.073,11.448 -0.182,17.174 4.157,0.037 8.363,0.06 12.477,0.072 -0.04,-1.274 0.058,-2.545 0.018,-3.821 -2.578,-0.004 -5.014,-0.019 -7.586,-0.035 -0.033,-1.008 0.066,-2.016 0.036,-3.026" /><path
       id="path52"
       style="fill:none;stroke:#ffffff;stroke-width:0.78600001;stroke-linecap:butt;stroke-linejoin:miter;stroke-miterlimit:4;stroke-dasharray:none;stroke-opacity:1"
       d="m 100.742,180.735 c 2.411,0.014 4.824,0.024 7.235,0.033 -0.037,-1.067 0.062,-2.134 0.022,-3.2 -2.371,-0.008 -4.883,-0.019 -7.256,-0.033 0.057,-1.11 0.025,-2.221 0.035,-3.331 2.712,0.018 5.292,0.032 8.005,0.036 -0.004,-1.266 -0.008,-2.531 -0.012,-3.795 -4.219,-0.012 -8.569,-0.035 -12.792,-0.074 -0.06,5.724 -0.073,11.448 -0.182,17.174 4.157,0.037 8.363,0.06 12.477,0.072 -0.04,-1.274 0.058,-2.545 0.018,-3.821 -2.578,-0.004 -5.014,-0.019 -7.586,-0.035 -0.033,-1.008 0.066,-2.016 0.036,-3.026 z" /><path
       id="path54"
       style="fill:#ffffff;fill-opacity:1;fill-rule:nonzero;stroke:none"
       d="m 120.52,179.46 c 1.48,1.827 2.966,3.645 4.454,5.469 1.714,-0.369 3.424,-0.745 5.13,-1.119 -2.207,-2.406 -4.399,-4.815 -6.594,-7.229 1.069,-3.212 2.124,-6.427 3.178,-9.644 -1.783,0.394 -3.569,0.787 -5.355,1.174 -0.643,2.302 -1.195,4.601 -1.797,6.902 -1.536,-1.84 -3.067,-3.682 -4.601,-5.525 -1.788,0.381 -3.582,0.759 -5.373,1.136 2.311,2.491 4.669,4.981 6.95,7.464 -0.952,3.101 -2.044,6.201 -3,9.3 1.787,-0.376 3.523,-0.758 5.352,-1.139 0.602,-2.261 1.059,-4.527 1.656,-6.789" /><path
       id="path56"
       style="fill:none;stroke:#ffffff;stroke-width:0.78600001;stroke-linecap:butt;stroke-linejoin:miter;stroke-miterlimit:4;stroke-dasharray:none;stroke-opacity:1"
       d="m 120.52,179.46 c 1.48,1.827 2.966,3.645 4.454,5.469 1.714,-0.369 3.424,-0.745 5.13,-1.119 -2.207,-2.406 -4.399,-4.815 -6.594,-7.229 1.069,-3.212 2.124,-6.427 3.178,-9.644 -1.783,0.394 -3.569,0.787 -5.355,1.174 -0.643,2.302 -1.195,4.601 -1.797,6.902 -1.536,-1.84 -3.067,-3.682 -4.601,-5.525 -1.788,0.381 -3.582,0.759 -5.373,1.136 2.311,2.491 4.669,4.981 6.95,7.464 -0.952,3.101 -2.044,6.201 -3,9.3 1.787,-0.376 3.523,-0.758 5.352,-1.139 0.602,-2.261 1.059,-4.527 1.656,-6.789 z" /><path
       id="path58"
       style="fill:#ffffff;fill-opacity:1;fill-rule:nonzero;stroke:none"
       d="m 138.374,170.501 c -0.998,0.483 -1.989,0.965 -2.988,1.445 0.752,1.507 1.641,3.008 2.392,4.512 0.93,-0.468 1.997,-0.942 2.93,-1.414 0.314,-0.138 0.712,-0.416 0.933,-0.67 0.382,-0.58 -0.196,-1.452 -0.497,-2.12 -0.182,-0.251 -0.275,-0.509 -0.409,-0.76 -0.168,-0.286 -0.622,-1.008 -1.058,-1.165 -0.482,-0.175 -1.009,0.034 -1.303,0.172 z m -3.067,11.424 c -2.77,-5.107 -5.425,-10.222 -8.108,-15.342 1.431,-0.68 2.81,-1.361 4.278,-2.044 0.689,1.307 1.375,2.616 2.062,3.925 1.249,-0.597 2.446,-1.195 3.735,-1.793 1.531,-0.744 2.708,-1.191 4.353,-0.756 1.497,0.407 2.505,1.733 3.437,3.403 0.157,0.315 0.317,0.624 0.479,0.939 0.495,0.911 1.885,3.151 0.719,5.227 -0.688,1.22 -1.8,2.031 -3.324,2.761 -2.541,1.231 -5.083,2.459 -7.631,3.68" /><path
       id="path60"
       style="fill:none;stroke:#ffffff;stroke-width:0.78600001;stroke-linecap:butt;stroke-linejoin:miter;stroke-miterlimit:4;stroke-dasharray:none;stroke-opacity:1"
       d="m 138.374,170.501 c -0.998,0.483 -1.989,0.965 -2.988,1.445 0.752,1.507 1.641,3.008 2.392,4.512 0.93,-0.468 1.997,-0.942 2.93,-1.414 0.314,-0.138 0.712,-0.416 0.933,-0.67 0.382,-0.58 -0.196,-1.452 -0.497,-2.12 -0.182,-0.251 -0.275,-0.509 -0.409,-0.76 -0.168,-0.286 -0.622,-1.008 -1.058,-1.165 -0.482,-0.175 -1.009,0.034 -1.303,0.172 z m -3.067,11.424 c -2.77,-5.107 -5.425,-10.222 -8.108,-15.342 1.431,-0.68 2.81,-1.361 4.278,-2.044 0.689,1.307 1.375,2.616 2.062,3.925 1.249,-0.597 2.446,-1.195 3.735,-1.793 1.531,-0.744 2.708,-1.191 4.353,-0.756 1.497,0.407 2.505,1.733 3.437,3.403 0.157,0.315 0.317,0.624 0.479,0.939 0.495,0.911 1.885,3.151 0.719,5.227 -0.688,1.22 -1.8,2.031 -3.324,2.761 -2.541,1.231 -5.083,2.459 -7.631,3.68 z" /><path
       id="path62"
       style="fill:#ffffff;fill-opacity:1;fill-rule:nonzero;stroke:none"
       d="m 153.242,160.959 c -0.866,0.742 -1.821,1.484 -2.731,2.226 1.063,1.262 2.221,2.518 3.336,3.775 0.885,-0.753 1.909,-1.513 2.792,-2.27 0.366,-0.277 0.733,-0.593 0.819,-1.042 0.008,-0.303 -0.216,-0.84 -0.666,-1.262 -0.259,-0.341 -0.608,-0.682 -0.909,-1.023 -0.341,-0.44 -0.773,-0.963 -1.415,-0.99 -0.508,-0.034 -0.956,0.376 -1.226,0.586 z m -5.342,-0.721 c 0.824,-0.703 1.783,-1.407 2.611,-2.108 0.409,-0.342 0.645,-0.699 0.693,-1.258 0.007,-0.429 -0.123,-0.733 -0.389,-1.074 -0.616,-0.752 -1.371,-1.5 -1.981,-2.252 1.211,-0.98 2.42,-1.961 3.633,-2.943 0.585,0.725 1.304,1.44 1.893,2.163 0.798,0.926 1.284,1.728 1.189,2.9 -0.057,0.66 -0.395,1.026 -0.588,1.683 0.854,-0.357 1.402,-0.549 2.318,-0.383 1.153,0.237 1.502,0.592 2.558,1.856 0.254,0.232 0.371,0.465 0.624,0.697 1.221,1.401 2.345,2.526 1.765,4.443 -0.392,1.329 -1.656,2.581 -2.305,3.072 -2.371,1.934 -4.756,3.864 -7.141,5.79 -3.884,-4.368 -7.74,-8.745 -11.574,-13.135 1.22,-0.975 2.436,-1.951 3.655,-2.93 1.055,1.158 1.979,2.32 3.039,3.479" /><path
       id="path64"
       style="fill:none;stroke:#ffffff;stroke-width:0.78600001;stroke-linecap:butt;stroke-linejoin:miter;stroke-miterlimit:4;stroke-dasharray:none;stroke-opacity:1"
       d="m 153.242,160.959 c -0.866,0.742 -1.821,1.484 -2.731,2.226 1.063,1.262 2.221,2.518 3.336,3.775 0.885,-0.753 1.909,-1.513 2.792,-2.27 0.366,-0.277 0.733,-0.593 0.819,-1.042 0.008,-0.303 -0.216,-0.84 -0.666,-1.262 -0.259,-0.341 -0.608,-0.682 -0.909,-1.023 -0.341,-0.44 -0.773,-0.963 -1.415,-0.99 -0.508,-0.034 -0.956,0.376 -1.226,0.586 z m -5.342,-0.721 c 0.824,-0.703 1.783,-1.407 2.611,-2.108 0.409,-0.342 0.645,-0.699 0.693,-1.258 0.007,-0.429 -0.123,-0.733 -0.389,-1.074 -0.616,-0.752 -1.371,-1.5 -1.981,-2.252 1.211,-0.98 2.42,-1.961 3.633,-2.943 0.585,0.725 1.304,1.44 1.893,2.163 0.798,0.926 1.284,1.728 1.189,2.9 -0.057,0.66 -0.395,1.026 -0.588,1.683 0.854,-0.357 1.402,-0.549 2.318,-0.383 1.153,0.237 1.502,0.592 2.558,1.856 0.254,0.232 0.371,0.465 0.624,0.697 1.221,1.401 2.345,2.526 1.765,4.443 -0.392,1.329 -1.656,2.581 -2.305,3.072 -2.371,1.934 -4.756,3.864 -7.141,5.79 -3.884,-4.368 -7.74,-8.745 -11.574,-13.135 1.22,-0.975 2.436,-1.951 3.655,-2.93 1.055,1.158 1.979,2.32 3.039,3.479 z" /><path
       id="path66"
       style="fill:#ffffff;fill-opacity:1;fill-rule:nonzero;stroke:none"
       d="m 164.709,152.265 c 1.485,-1.822 2.833,-3.646 4.305,-5.471 -0.823,-0.646 -1.789,-1.289 -2.613,-1.935 -1.442,1.824 -2.891,3.644 -4.342,5.468 -0.911,-0.674 -1.87,-1.345 -2.734,-2.023 1.597,-2.012 3.184,-4.025 4.773,-6.041 -1.077,-0.763 -2.02,-1.535 -3.095,-2.303 -2.561,3.233 -5.18,6.46 -7.719,9.684 4.702,3.49 9.385,6.97 14.18,10.43 2.537,-3.133 4.926,-6.262 7.435,-9.399 -1.011,-0.765 -2.167,-1.529 -3.18,-2.298 -1.498,1.908 -2.998,3.816 -4.506,5.722 -0.834,-0.611 -1.669,-1.223 -2.504,-1.834" /><path
       id="path68"
       style="fill:none;stroke:#ffffff;stroke-width:0.78600001;stroke-linecap:butt;stroke-linejoin:miter;stroke-miterlimit:4;stroke-dasharray:none;stroke-opacity:1"
       d="m 164.709,152.265 c 1.485,-1.822 2.833,-3.646 4.305,-5.471 -0.823,-0.646 -1.789,-1.289 -2.613,-1.935 -1.442,1.824 -2.891,3.644 -4.342,5.468 -0.911,-0.674 -1.87,-1.345 -2.734,-2.023 1.597,-2.012 3.184,-4.025 4.773,-6.041 -1.077,-0.763 -2.02,-1.535 -3.095,-2.303 -2.561,3.233 -5.18,6.46 -7.719,9.684 4.702,3.49 9.385,6.97 14.18,10.43 2.537,-3.133 4.926,-6.262 7.435,-9.399 -1.011,-0.765 -2.167,-1.529 -3.18,-2.298 -1.498,1.908 -2.998,3.816 -4.506,5.722 -0.834,-0.611 -1.669,-1.223 -2.504,-1.834 z" /><path
       id="path70"
       style="fill:#ffffff;fill-opacity:1;fill-rule:nonzero;stroke:none"
       d="m 176.78,135.712 c 0.128,0.082 0.342,0.162 0.516,0.245 0.37,0.144 0.512,0.279 0.71,0.562 0.382,0.537 -0.078,1.203 -0.322,1.841 -0.133,0.192 -0.181,0.38 -0.275,0.571 -0.121,0.257 -0.705,1.334 -1.145,1.455 -0.442,0.104 -0.795,0.061 -1.204,-0.112 -0.088,-0.04 -0.179,-0.084 -0.273,-0.125 -0.421,-0.209 -0.66,-0.337 -0.868,-0.775 -0.142,-0.457 0.037,-0.796 0.254,-1.254 0.498,-1.289 0.959,-2.578 1.503,-3.866 0.381,-0.954 0.64,-1.751 0.35,-2.665 -0.458,-1.412 -1.616,-2.316 -2.938,-2.902 -0.276,-0.129 -0.547,-0.26 -0.816,-0.391 -1.031,-0.47 -2.334,-1.088 -3.863,-0.453 -1.807,0.786 -2.734,2.964 -3.368,4.375 -0.318,0.537 -0.499,1.072 -0.814,1.611 -0.399,0.807 -1.449,2.353 -1.002,4.31 0.262,1.466 1.443,2.153 2.901,2.819 0.304,0.142 0.61,0.28 0.913,0.418 0.651,-1.246 1.166,-2.489 1.823,-3.738 -0.214,-0.101 -0.428,-0.201 -0.638,-0.302 -0.306,-0.144 -0.522,-0.326 -0.651,-0.584 -0.487,-0.741 0.131,-1.957 0.287,-2.196 0.105,-0.298 0.345,-0.602 0.45,-0.898 0.267,-0.623 0.533,-1.247 1.086,-1.448 0.386,-0.115 0.646,-0.065 1.042,0.087 0.062,0.048 0.25,0.093 0.309,0.142 0.276,0.109 0.776,0.274 0.984,0.832 0.159,0.455 -0.081,1.061 -0.193,1.347 -0.414,1.034 -0.824,2.071 -1.238,3.106 -0.41,0.945 -0.799,2.568 -0.534,3.621 0.294,1.205 1.659,2.033 2.879,2.584 0.148,0.09 0.428,0.175 0.578,0.264 1.407,0.64 2.755,0.982 4.429,0.429 1.201,-0.373 2.28,-2.752 2.575,-3.324 0.417,-0.869 0.831,-1.742 1.244,-2.611 0.222,-0.495 1.162,-2.045 0.849,-3.449 -0.293,-1.592 -1.728,-2.567 -2.962,-3.104 -0.232,-0.107 -0.513,-0.211 -0.696,-0.316 -0.625,1.299 -1.301,2.597 -1.882,3.894" /><path
       id="path72"
       style="fill:none;stroke:#ffffff;stroke-width:0.78600001;stroke-linecap:butt;stroke-linejoin:miter;stroke-miterlimit:4;stroke-dasharray:none;stroke-opacity:1"
       d="m 176.78,135.712 c 0.128,0.082 0.342,0.162 0.516,0.245 0.37,0.144 0.512,0.279 0.71,0.562 0.382,0.537 -0.078,1.203 -0.322,1.841 -0.133,0.192 -0.181,0.38 -0.275,0.571 -0.121,0.257 -0.705,1.334 -1.145,1.455 -0.442,0.104 -0.795,0.061 -1.204,-0.112 -0.088,-0.04 -0.179,-0.084 -0.273,-0.125 -0.421,-0.209 -0.66,-0.337 -0.868,-0.775 -0.142,-0.457 0.037,-0.796 0.254,-1.254 0.498,-1.289 0.959,-2.578 1.503,-3.866 0.381,-0.954 0.64,-1.751 0.35,-2.665 -0.458,-1.412 -1.616,-2.316 -2.938,-2.902 -0.276,-0.129 -0.547,-0.26 -0.816,-0.391 -1.031,-0.47 -2.334,-1.088 -3.863,-0.453 -1.807,0.786 -2.734,2.964 -3.368,4.375 -0.318,0.537 -0.499,1.072 -0.814,1.611 -0.399,0.807 -1.449,2.353 -1.002,4.31 0.262,1.466 1.443,2.153 2.901,2.819 0.304,0.142 0.61,0.28 0.913,0.418 0.651,-1.246 1.166,-2.489 1.823,-3.738 -0.214,-0.101 -0.428,-0.201 -0.638,-0.302 -0.306,-0.144 -0.522,-0.326 -0.651,-0.584 -0.487,-0.741 0.131,-1.957 0.287,-2.196 0.105,-0.298 0.345,-0.602 0.45,-0.898 0.267,-0.623 0.533,-1.247 1.086,-1.448 0.386,-0.115 0.646,-0.065 1.042,0.087 0.062,0.048 0.25,0.093 0.309,0.142 0.276,0.109 0.776,0.274 0.984,0.832 0.159,0.455 -0.081,1.061 -0.193,1.347 -0.414,1.034 -0.824,2.071 -1.238,3.106 -0.41,0.945 -0.799,2.568 -0.534,3.621 0.294,1.205 1.659,2.033 2.879,2.584 0.148,0.09 0.428,0.175 0.578,0.264 1.407,0.64 2.755,0.982 4.429,0.429 1.201,-0.373 2.28,-2.752 2.575,-3.324 0.417,-0.869 0.831,-1.742 1.244,-2.611 0.222,-0.495 1.162,-2.045 0.849,-3.449 -0.293,-1.592 -1.728,-2.567 -2.962,-3.104 -0.232,-0.107 -0.513,-0.211 -0.696,-0.316 -0.625,1.299 -1.301,2.597 -1.882,3.894 z" /><path
       id="path74"
       style="fill:#ffffff;fill-opacity:1;fill-rule:nonzero;stroke:none"
       d="m 182.161,118.887 c 0.189,0.043 0.338,0.083 0.567,0.122 0.307,0.078 0.611,0.164 0.79,0.403 0.429,0.454 0.291,1.169 0.105,1.866 -0.05,0.208 -0.101,0.411 -0.151,0.611 -0.044,0.28 -0.36,1.444 -0.764,1.661 -0.478,0.203 -0.697,0.22 -1.183,0.144 -0.054,-0.022 -0.243,-0.04 -0.297,-0.066 -0.426,-0.117 -0.755,-0.181 -1.005,-0.568 -0.331,-0.408 -0.077,-0.793 -0.053,-1.277 0.237,-1.365 0.385,-2.723 0.582,-4.087 0.131,-1.005 0.269,-1.844 -0.258,-2.672 -0.701,-1.296 -2.076,-1.911 -3.489,-2.211 -0.243,-0.071 -0.576,-0.142 -0.863,-0.212 -1.122,-0.238 -2.466,-0.572 -3.856,0.376 -1.576,1.149 -1.956,3.457 -2.285,4.981 -0.175,0.581 -0.274,1.161 -0.409,1.741 -0.206,0.871 -0.875,2.597 -0.026,4.423 0.585,1.365 1.899,1.79 3.432,2.131 0.33,0.071 0.661,0.143 0.991,0.214 0.271,-1.344 0.679,-2.69 0.95,-4.034 -0.235,-0.051 -0.48,-0.101 -0.714,-0.154 -0.385,-0.071 -0.462,-0.223 -0.759,-0.434 -0.642,-0.609 -0.283,-1.949 -0.2,-2.207 0.076,-0.322 0.156,-0.646 0.233,-0.969 0.196,-0.674 0.173,-1.322 0.736,-1.644 0.287,-0.182 0.708,-0.213 1.006,-0.131 0.12,0.025 0.236,0.047 0.355,0.072 0.234,0.057 0.825,0.1 1.122,0.602 0.265,0.412 0.187,1.052 0.139,1.351 -0.222,1.104 -0.353,2.201 -0.53,3.301 -0.171,1 -0.181,2.662 0.315,3.637 0.524,1.118 2.045,1.634 3.38,1.914 0.153,0.045 0.403,0.09 0.604,0.134 1.48,0.327 2.907,0.382 4.384,-0.519 1.1,-0.621 1.579,-3.166 1.743,-3.783 0.165,-0.936 0.457,-1.877 0.622,-2.813 0.126,-0.531 0.641,-2.23 0.021,-3.537 -0.64,-1.488 -2.222,-2.142 -3.562,-2.404 -0.25,-0.054 -0.458,-0.105 -0.751,-0.159 -0.261,1.397 -0.657,2.799 -0.922,4.197" /><path
       id="path76"
       style="fill:none;stroke:#ffffff;stroke-width:0.78600001;stroke-linecap:butt;stroke-linejoin:miter;stroke-miterlimit:4;stroke-dasharray:none;stroke-opacity:1"
       d="m 182.161,118.887 c 0.189,0.043 0.338,0.083 0.567,0.122 0.307,0.078 0.611,0.164 0.79,0.403 0.429,0.454 0.291,1.169 0.105,1.866 -0.05,0.208 -0.101,0.411 -0.151,0.611 -0.044,0.28 -0.36,1.444 -0.764,1.661 -0.478,0.203 -0.697,0.22 -1.183,0.144 -0.054,-0.022 -0.243,-0.04 -0.297,-0.066 -0.426,-0.117 -0.755,-0.181 -1.005,-0.568 -0.331,-0.408 -0.077,-0.793 -0.053,-1.277 0.237,-1.365 0.385,-2.723 0.582,-4.087 0.131,-1.005 0.269,-1.844 -0.258,-2.672 -0.701,-1.296 -2.076,-1.911 -3.489,-2.211 -0.243,-0.071 -0.576,-0.142 -0.863,-0.212 -1.122,-0.238 -2.466,-0.572 -3.856,0.376 -1.576,1.149 -1.956,3.457 -2.285,4.981 -0.175,0.581 -0.274,1.161 -0.409,1.741 -0.206,0.871 -0.875,2.597 -0.026,4.423 0.585,1.365 1.899,1.79 3.432,2.131 0.33,0.071 0.661,0.143 0.991,0.214 0.271,-1.344 0.679,-2.69 0.95,-4.034 -0.235,-0.051 -0.48,-0.101 -0.714,-0.154 -0.385,-0.071 -0.462,-0.223 -0.759,-0.434 -0.642,-0.609 -0.283,-1.949 -0.2,-2.207 0.076,-0.322 0.156,-0.646 0.233,-0.969 0.196,-0.674 0.173,-1.322 0.736,-1.644 0.287,-0.182 0.708,-0.213 1.006,-0.131 0.12,0.025 0.236,0.047 0.355,0.072 0.234,0.057 0.825,0.1 1.122,0.602 0.265,0.412 0.187,1.052 0.139,1.351 -0.222,1.104 -0.353,2.201 -0.53,3.301 -0.171,1 -0.181,2.662 0.315,3.637 0.524,1.118 2.045,1.634 3.38,1.914 0.153,0.045 0.403,0.09 0.604,0.134 1.48,0.327 2.907,0.382 4.384,-0.519 1.1,-0.621 1.579,-3.166 1.743,-3.783 0.165,-0.936 0.457,-1.877 0.622,-2.813 0.126,-0.531 0.641,-2.23 0.021,-3.537 -0.64,-1.488 -2.222,-2.142 -3.562,-2.404 -0.25,-0.054 -0.458,-0.105 -0.751,-0.159 -0.261,1.397 -0.657,2.799 -0.922,4.197 z" /><path
       id="path78"
       style="fill:#ffffff;fill-opacity:1;fill-rule:nonzero;stroke:none"
       d="m 62.474,36.389 2.578,-1.851 -0.334,-0.467 c -1.354,-1.884 -2.572,-2.856 -3.656,-2.915 -1.084,-0.059 -2.803,0.756 -5.156,2.446 -2.671,1.917 -4,3.532 -3.988,4.847 0.013,1.315 1.382,3.871 4.108,7.668 1.605,2.237 3.077,3.408 4.416,3.516 1.338,0.106 3.333,-0.792 5.984,-2.695 1.93,-1.385 3.012,-2.6 3.245,-3.643 0.232,-1.043 -0.269,-2.425 -1.502,-4.144 l -0.211,-0.314 -2.578,1.851 0.248,0.346 c 0.634,0.883 0.873,1.568 0.717,2.054 -0.157,0.486 -0.828,1.156 -2.017,2.01 -1.592,1.142 -2.687,1.632 -3.287,1.472 -0.601,-0.159 -1.59,-1.201 -2.971,-3.124 -1.86,-2.591 -2.816,-4.227 -2.871,-4.909 -0.054,-0.683 0.705,-1.587 2.277,-2.716 1.274,-0.914 2.195,-1.376 2.765,-1.384 0.569,-0.009 1.176,0.435 1.82,1.332 l 0.413,0.62" /><path
       id="path80"
       style="fill:none;stroke:#ffffff;stroke-width:2;stroke-linecap:butt;stroke-linejoin:miter;stroke-miterlimit:4;stroke-dasharray:none;stroke-opacity:1"
       d="m 62.474,36.389 2.578,-1.851 -0.334,-0.467 c -1.354,-1.884 -2.572,-2.856 -3.656,-2.915 -1.084,-0.059 -2.803,0.756 -5.156,2.446 -2.671,1.917 -4,3.532 -3.988,4.847 0.013,1.315 1.382,3.871 4.108,7.668 1.605,2.237 3.077,3.408 4.416,3.516 1.338,0.106 3.333,-0.792 5.984,-2.695 1.93,-1.385 3.012,-2.6 3.245,-3.643 0.232,-1.043 -0.269,-2.425 -1.502,-4.144 l -0.211,-0.314 -2.578,1.851 0.248,0.346 c 0.634,0.883 0.873,1.568 0.717,2.054 -0.157,0.486 -0.828,1.156 -2.017,2.01 -1.592,1.142 -2.687,1.632 -3.287,1.472 -0.601,-0.159 -1.59,-1.201 -2.971,-3.124 -1.86,-2.591 -2.816,-4.227 -2.871,-4.909 -0.054,-0.683 0.705,-1.587 2.277,-2.716 1.274,-0.914 2.195,-1.376 2.765,-1.384 0.569,-0.009 1.176,0.435 1.82,1.332 z" /><path
       id="path82"
       style="fill:#ffffff;fill-opacity:1;fill-rule:nonzero;stroke:none"
       d="m 82.863,38.162 c 2.83,-1.078 4.474,-2.242 4.93,-3.492 0.456,-1.25 0.061,-3.508 -1.182,-6.773 -1.36,-3.57 -2.626,-5.663 -3.798,-6.28 -1.171,-0.617 -3.328,-0.326 -6.47,0.87 -2.831,1.078 -4.486,2.235 -4.966,3.468 -0.48,1.232 -0.125,3.409 1.063,6.53 1.415,3.713 2.711,5.891 3.888,6.533 1.176,0.641 3.355,0.356 6.535,-0.856 z m -1.196,-2.454 c -1.983,0.756 -3.239,0.942 -3.767,0.561 -0.528,-0.382 -1.367,-2.082 -2.517,-5.101 -0.851,-2.234 -1.168,-3.654 -0.951,-4.26 0.217,-0.605 1.283,-1.272 3.198,-2.002 1.831,-0.697 3.026,-0.858 3.586,-0.484 0.56,0.374 1.335,1.861 2.326,4.461 0.993,2.607 1.407,4.215 1.243,4.821 -0.165,0.607 -1.204,1.275 -3.118,2.004" /><path
       id="path84"
       style="fill:none;stroke:#ffffff;stroke-width:2;stroke-linecap:butt;stroke-linejoin:miter;stroke-miterlimit:4;stroke-dasharray:none;stroke-opacity:1"
       d="m 82.863,38.162 c 2.83,-1.078 4.474,-2.242 4.93,-3.492 0.456,-1.25 0.061,-3.508 -1.182,-6.773 -1.36,-3.57 -2.626,-5.663 -3.798,-6.28 -1.171,-0.617 -3.328,-0.326 -6.47,0.87 -2.831,1.078 -4.486,2.235 -4.966,3.468 -0.48,1.232 -0.125,3.409 1.063,6.53 1.415,3.713 2.711,5.891 3.888,6.533 1.176,0.641 3.355,0.356 6.535,-0.856 z m -1.196,-2.454 c -1.983,0.756 -3.239,0.942 -3.767,0.561 -0.528,-0.382 -1.367,-2.082 -2.517,-5.101 -0.851,-2.234 -1.168,-3.654 -0.951,-4.26 0.217,-0.605 1.283,-1.272 3.198,-2.002 1.831,-0.697 3.026,-0.858 3.586,-0.484 0.56,0.374 1.335,1.861 2.326,4.461 0.993,2.607 1.407,4.215 1.243,4.821 -0.165,0.607 -1.204,1.275 -3.118,2.004 z" /><path
       id="path86"
       style="fill:#ffffff;fill-opacity:1;fill-rule:nonzero;stroke:none"
       d="m 98.064,31.663 -0.327,-4.487 7.45,-0.544 -0.194,-2.649 -7.449,0.543 -0.498,-6.826 -3.148,0.23 1.211,16.612 11.003,-0.802 -0.194,-2.649 -7.854,0.572" /><path
       id="path88"
       style="fill:none;stroke:#ffffff;stroke-width:2;stroke-linecap:butt;stroke-linejoin:miter;stroke-miterlimit:4;stroke-dasharray:none;stroke-opacity:1"
       d="m 98.064,31.663 -0.327,-4.487 7.45,-0.544 -0.194,-2.649 -7.449,0.543 -0.498,-6.826 -3.148,0.23 1.211,16.612 11.003,-0.802 -0.194,-2.649 z" /><path
       id="path90"
       style="fill:#ffffff;fill-opacity:1;fill-rule:nonzero;stroke:none"
       d="m 115.25,32.292 0.937,-4.401 7.305,1.554 0.552,-2.597 -7.304,-1.556 1.425,-6.693 -3.087,-0.658 -3.469,16.291 10.79,2.297 0.553,-2.597 -7.702,-1.64" /><path
       id="path92"
       style="fill:none;stroke:#ffffff;stroke-width:2;stroke-linecap:butt;stroke-linejoin:miter;stroke-miterlimit:4;stroke-dasharray:none;stroke-opacity:1"
       d="m 115.25,32.292 0.937,-4.401 7.305,1.554 0.552,-2.597 -7.304,-1.556 1.425,-6.693 -3.087,-0.658 -3.469,16.291 10.79,2.297 0.553,-2.597 z" /><path
       id="path94"
       style="fill:#ffffff;fill-opacity:1;fill-rule:nonzero;stroke:none"
       d="m 131.317,37.525 1.98,-3.796 6.954,3.629 1.085,-2.078 -6.954,-3.628 2.183,-4.183 7.397,3.859 1.229,-2.354 -10.195,-5.321 -7.705,14.767 10.112,5.277 1.228,-2.355 -7.314,-3.817" /><path
       id="path96"
       style="fill:none;stroke:#ffffff;stroke-width:2;stroke-linecap:butt;stroke-linejoin:miter;stroke-miterlimit:4;stroke-dasharray:none;stroke-opacity:1"
       d="m 131.317,37.525 1.98,-3.796 6.954,3.629 1.085,-2.078 -6.954,-3.628 2.183,-4.183 7.397,3.859 1.229,-2.354 -10.195,-5.321 -7.705,14.767 10.112,5.277 1.228,-2.355 z" /><path
       id="path98"
       style="fill:#ffffff;fill-opacity:1;fill-rule:nonzero;stroke:none"
       d="m 146.479,47.149 2.76,-3.272 5.996,5.057 1.512,-1.792 -5.997,-5.057 3.042,-3.607 6.378,5.378 1.713,-2.03 -8.792,-7.414 -10.737,12.733 8.719,7.354 1.713,-2.03 -6.307,-5.32" /><path
       id="path100"
       style="fill:none;stroke:#ffffff;stroke-width:2;stroke-linecap:butt;stroke-linejoin:miter;stroke-miterlimit:4;stroke-dasharray:none;stroke-opacity:1"
       d="m 146.479,47.149 2.76,-3.272 5.996,5.057 1.512,-1.792 -5.997,-5.057 3.042,-3.607 6.378,5.378 1.713,-2.03 -8.792,-7.414 -10.737,12.733 8.719,7.354 1.713,-2.03 z" /><path
       id="path102"
       style="fill:#ffffff;fill-opacity:1;fill-rule:nonzero;stroke:none"
       d="m 153.854,97.989 c -0.099,3.75 -3.667,6.678 -6.891,8.167 -4.693,1.941 -10.612,1.135 -14.767,-1.379 -1.274,0.323 -3.816,1.226 -6.264,1.556 -0.046,0.043 -0.136,0.085 -0.318,0.121 -0.723,0.145 -1.583,0.539 -2.416,1.196 -0.833,0.659 -1,1.844 -1.167,3.16 -0.167,1.316 0,1.843 1.333,3.555 1.333,1.711 1.334,1.842 2.167,3.158 0.849,1.344 1,2.502 0.167,3.95 -0.833,1.448 -1.333,1.316 -2,2.237 -0.667,0.922 -1.167,1.449 -1.5,2.633 -0.333,1.186 -0.167,1.58 1,3.027 1.167,1.45 2.666,2.24 3.5,3.029 0.834,0.79 1.332,2.106 1.166,3.159 -0.166,1.054 -1.5,3.423 -2.166,4.213 -0.666,0.789 -2.167,3.291 -3.167,3.027 -1,-0.262 -2.666,-1.315 -2,-2.501 0.666,-1.184 1.938,-1.835 2.833,-3.159 1.334,-1.975 1,-2.896 0.334,-3.817 -0.596,-0.825 -1.834,-1.054 -3.334,-2.239 -1.5,-1.184 -2.166,-2.237 -2.5,-3.553 -0.334,-1.317 -0.5,-2.633 1.334,-3.95 1.834,-1.317 2.666,-1.843 3,-2.896 0.492,-1.553 -0.667,-2.501 -1.5,-3.424 -0.833,-0.92 -1.168,-1.709 -1.834,-2.764 -0.666,-1.052 -0.833,-2.632 -1,-3.817 -0.157,-1.118 0.579,-2.591 1.503,-4.191 l -6.832,0.125 c -0.402,0.223 -0.67,0.511 -1.337,1.038 -0.833,0.659 -1,1.844 -1.167,3.16 -0.167,1.316 0,1.843 1.333,3.555 1.333,1.711 1.334,1.842 2.167,3.158 0.849,1.344 1,2.502 0.167,3.95 -0.833,1.448 -1.333,1.316 -2,2.237 -0.667,0.922 -1.167,1.449 -1.5,2.633 -0.333,1.186 -0.167,1.58 1,3.027 1.167,1.45 5.148,2.11 3.5,3.029 l -0.643,0.735 c -2.164,2.546 -4.191,-0.867 -5.691,-2.052 -1.5,-1.184 -2.166,-2.237 -2.5,-3.553 -0.334,-1.317 -0.5,-2.633 1.334,-3.95 1.834,-1.317 2.666,-1.843 3,-2.896 0.492,-1.553 -0.667,-2.501 -1.5,-3.424 -0.833,-0.92 -1.168,-1.709 -1.834,-2.764 -0.666,-1.052 -0.833,-2.632 -1,-3.817 -0.151,-1.066 0.512,-2.454 1.375,-3.969 l -6.08,0.112 c -0.275,0.242 -0.909,0.394 -1.462,0.829 -0.833,0.659 -1,1.844 -1.167,3.16 -0.167,1.316 0,1.843 1.333,3.555 1.334,1.711 1.335,1.842 2.168,3.158 0.849,1.344 1,2.502 0.167,3.95 -0.833,1.448 -1.333,1.316 -2,2.237 -0.668,0.922 -1.168,1.449 -1.501,2.633 -0.333,1.186 -0.167,1.58 1,3.027 1.168,1.45 2.667,2.24 3.501,3.029 0.834,0.79 1.332,2.106 1.166,3.159 -0.166,1.054 -1.5,3.423 -2.166,4.213 -0.666,0.789 -2.167,3.291 -3.168,3.027 -1,-0.262 -2.666,-1.315 -2,-2.501 0.666,-1.184 1.939,-1.835 2.833,-3.159 1.335,-1.975 1.001,-2.896 0.335,-3.817 -0.596,-0.825 -1.835,-1.054 -3.335,-2.239 -1.5,-1.184 -2.166,-2.237 -2.5,-3.553 -0.334,-1.317 -0.5,-2.633 1.334,-3.95 1.834,-1.317 2.666,-1.843 3,-2.896 0.492,-1.553 -0.667,-2.501 -1.5,-3.424 -0.833,-0.92 -1.168,-1.709 -1.834,-2.764 -0.666,-1.052 -0.833,-2.632 -1,-3.817 -0.143,-1.016 0.452,-2.324 1.255,-3.756 l -6.534,0.12 c -0.157,0.253 -0.425,0.508 -0.803,0.807 -0.833,0.657 -1,1.842 -1.167,3.158 -0.167,1.317 0,0.844 1.333,2.555 1.333,1.711 1.334,1.844 2.167,3.16 0.85,1.342 1,2.501 0.167,3.948 -0.833,1.449 -1.333,1.318 -2,2.239 -0.667,0.92 -1.167,1.448 -1.5,2.632 -0.333,1.185 -0.167,1.58 1,3.029 1.167,1.447 5.156,2.273 3.5,3.027 l -0.762,1.028 c -1.656,2.673 -4.072,-1.16 -5.572,-2.344 -1.5,-1.186 -2.166,-2.239 -2.5,-3.555 -0.334,-1.316 -0.5,-2.633 1.334,-3.949 1.834,-1.317 2.666,-1.843 3,-2.897 0.492,-1.552 -0.667,-2.501 -1.5,-3.422 -0.833,-0.921 -1.168,-1.711 -1.834,-2.764 -0.666,-1.053 -0.833,-1.633 -1,-2.818 -0.142,-1.014 0.449,-2.317 1.248,-3.744 l -6.165,0.113 c -0.201,0.02 -0.422,0.03 -0.638,0.041 -0.071,0.105 -0.18,0.22 -0.362,0.364 -0.833,0.659 -1,1.844 -1.167,3.16 -0.167,1.316 0,1.843 1.333,3.555 1.333,1.711 1.334,1.842 2.167,3.158 0.85,1.344 1,2.502 0.167,3.95 -0.833,1.448 -1.333,1.316 -2,2.237 -0.667,0.922 -1.167,1.449 -1.5,2.633 -0.333,1.186 -0.167,1.58 1,3.027 1.167,1.45 2.666,2.24 3.5,3.029 0.834,0.79 1.332,2.106 1.166,3.159 -0.166,1.054 -1.5,3.423 -2.166,4.213 -0.666,0.789 -2.167,3.291 -3.167,3.027 -1,-0.262 -2.666,-1.315 -2,-2.501 0.666,-1.184 1.939,-1.835 2.833,-3.159 1.334,-1.975 1,-2.896 0.334,-3.817 -0.595,-0.825 -1.834,-1.054 -3.334,-2.239 -1.5,-1.184 -2.166,-2.237 -2.5,-3.553 -0.334,-1.317 -0.5,-2.633 1.334,-3.95 1.834,-1.317 2.666,-1.843 3,-2.896 0.492,-1.553 -0.667,-2.501 -1.5,-3.424 -0.833,-0.92 -1.168,-1.709 -1.834,-2.764 -0.666,-1.052 -0.833,-2.632 -1,-3.817 -0.137,-0.976 0.409,-2.224 1.164,-3.59 -1.065,-0.131 -2.058,-0.308 -2.83,-0.509 -2.814,-0.378 -5.118,-0.839 -6.33,-3.612 0.429,-6.568 1.16,-12.871 3.226,-18.656 3.619,-9.509 7.396,-20.575 17.267,-25.552 10.471,-0.04 20.941,-0.166 31.404,-0.378 5.743,3.283 8.824,8.818 11.922,14.101 0.951,1.485 1.303,3.395 2.473,4.625 1.775,-0.858 3.898,-1.31 5.997,-0.846 4.872,0.91 9.805,2.298 13.421,5.953 2.85,4.674 4.996,9.691 4.444,15.775" /><path
       id="path104"
       style="fill:none;stroke:#231f20;stroke-width:2;stroke-linecap:butt;stroke-linejoin:miter;stroke-miterlimit:4;stroke-dasharray:none;stroke-opacity:1"
       d="m 153.854,97.989 c -0.099,3.75 -3.667,6.678 -6.891,8.167 -4.693,1.941 -10.612,1.135 -14.767,-1.379 -1.274,0.323 -3.816,1.226 -6.264,1.556 -0.046,0.043 -0.136,0.085 -0.318,0.121 -0.723,0.145 -1.583,0.539 -2.416,1.196 -0.833,0.659 -1,1.844 -1.167,3.16 -0.167,1.316 0,1.843 1.333,3.555 1.333,1.711 1.334,1.842 2.167,3.158 0.849,1.344 1,2.502 0.167,3.95 -0.833,1.448 -1.333,1.316 -2,2.237 -0.667,0.922 -1.167,1.449 -1.5,2.633 -0.333,1.186 -0.167,1.58 1,3.027 1.167,1.45 2.666,2.24 3.5,3.029 0.834,0.79 1.332,2.106 1.166,3.159 -0.166,1.054 -1.5,3.423 -2.166,4.213 -0.666,0.789 -2.167,3.291 -3.167,3.027 -1,-0.262 -2.666,-1.315 -2,-2.501 0.666,-1.184 1.938,-1.835 2.833,-3.159 1.334,-1.975 1,-2.896 0.334,-3.817 -0.596,-0.825 -1.834,-1.054 -3.334,-2.239 -1.5,-1.184 -2.166,-2.237 -2.5,-3.553 -0.334,-1.317 -0.5,-2.633 1.334,-3.95 1.834,-1.317 2.666,-1.843 3,-2.896 0.492,-1.553 -0.667,-2.501 -1.5,-3.424 -0.833,-0.92 -1.168,-1.709 -1.834,-2.764 -0.666,-1.052 -0.833,-2.632 -1,-3.817 -0.157,-1.118 0.579,-2.591 1.503,-4.191 l -6.832,0.125 c -0.402,0.223 -0.67,0.511 -1.337,1.038 -0.833,0.659 -1,1.844 -1.167,3.16 -0.167,1.316 0,1.843 1.333,3.555 1.333,1.711 1.334,1.842 2.167,3.158 0.849,1.344 1,2.502 0.167,3.95 -0.833,1.448 -1.333,1.316 -2,2.237 -0.667,0.922 -1.167,1.449 -1.5,2.633 -0.333,1.186 -0.167,1.58 1,3.027 1.167,1.45 5.148,2.11 3.5,3.029 l -0.643,0.735 c -2.164,2.546 -4.191,-0.867 -5.691,-2.052 -1.5,-1.184 -2.166,-2.237 -2.5,-3.553 -0.334,-1.317 -0.5,-2.633 1.334,-3.95 1.834,-1.317 2.666,-1.843 3,-2.896 0.492,-1.553 -0.667,-2.501 -1.5,-3.424 -0.833,-0.92 -1.168,-1.709 -1.834,-2.764 -0.666,-1.052 -0.833,-2.632 -1,-3.817 -0.151,-1.066 0.512,-2.454 1.375,-3.969 l -6.08,0.112 c -0.275,0.242 -0.909,0.394 -1.462,0.829 -0.833,0.659 -1,1.844 -1.167,3.16 -0.167,1.316 0,1.843 1.333,3.555 1.334,1.711 1.335,1.842 2.168,3.158 0.849,1.344 1,2.502 0.167,3.95 -0.833,1.448 -1.333,1.316 -2,2.237 -0.668,0.922 -1.168,1.449 -1.501,2.633 -0.333,1.186 -0.167,1.58 1,3.027 1.168,1.45 2.667,2.24 3.501,3.029 0.834,0.79 1.332,2.106 1.166,3.159 -0.166,1.054 -1.5,3.423 -2.166,4.213 -0.666,0.789 -2.167,3.291 -3.168,3.027 -1,-0.262 -2.666,-1.315 -2,-2.501 0.666,-1.184 1.939,-1.835 2.833,-3.159 1.335,-1.975 1.001,-2.896 0.335,-3.817 -0.596,-0.825 -1.835,-1.054 -3.335,-2.239 -1.5,-1.184 -2.166,-2.237 -2.5,-3.553 -0.334,-1.317 -0.5,-2.633 1.334,-3.95 1.834,-1.317 2.666,-1.843 3,-2.896 0.492,-1.553 -0.667,-2.501 -1.5,-3.424 -0.833,-0.92 -1.168,-1.709 -1.834,-2.764 -0.666,-1.052 -0.833,-2.632 -1,-3.817 -0.143,-1.016 0.452,-2.324 1.255,-3.756 l -6.534,0.12 c -0.157,0.253 -0.425,0.508 -0.803,0.807 -0.833,0.657 -1,1.842 -1.167,3.158 -0.167,1.317 0,0.844 1.333,2.555 1.333,1.711 1.334,1.844 2.167,3.16 0.85,1.342 1,2.501 0.167,3.948 -0.833,1.449 -1.333,1.318 -2,2.239 -0.667,0.92 -1.167,1.448 -1.5,2.632 -0.333,1.185 -0.167,1.58 1,3.029 1.167,1.447 5.156,2.273 3.5,3.027 l -0.762,1.028 c -1.656,2.673 -4.072,-1.16 -5.572,-2.344 -1.5,-1.186 -2.166,-2.239 -2.5,-3.555 -0.334,-1.316 -0.5,-2.633 1.334,-3.949 1.834,-1.317 2.666,-1.843 3,-2.897 0.492,-1.552 -0.667,-2.501 -1.5,-3.422 -0.833,-0.921 -1.168,-1.711 -1.834,-2.764 -0.666,-1.053 -0.833,-1.633 -1,-2.818 -0.142,-1.014 0.449,-2.317 1.248,-3.744 l -6.165,0.113 c -0.201,0.02 -0.422,0.03 -0.638,0.041 -0.071,0.105 -0.18,0.22 -0.362,0.364 -0.833,0.659 -1,1.844 -1.167,3.16 -0.167,1.316 0,1.843 1.333,3.555 1.333,1.711 1.334,1.842 2.167,3.158 0.85,1.344 1,2.502 0.167,3.95 -0.833,1.448 -1.333,1.316 -2,2.237 -0.667,0.922 -1.167,1.449 -1.5,2.633 -0.333,1.186 -0.167,1.58 1,3.027 1.167,1.45 2.666,2.24 3.5,3.029 0.834,0.79 1.332,2.106 1.166,3.159 -0.166,1.054 -1.5,3.423 -2.166,4.213 -0.666,0.789 -2.167,3.291 -3.167,3.027 -1,-0.262 -2.666,-1.315 -2,-2.501 0.666,-1.184 1.939,-1.835 2.833,-3.159 1.334,-1.975 1,-2.896 0.334,-3.817 -0.595,-0.825 -1.834,-1.054 -3.334,-2.239 -1.5,-1.184 -2.166,-2.237 -2.5,-3.553 -0.334,-1.317 -0.5,-2.633 1.334,-3.95 1.834,-1.317 2.666,-1.843 3,-2.896 0.492,-1.553 -0.667,-2.501 -1.5,-3.424 -0.833,-0.92 -1.168,-1.709 -1.834,-2.764 -0.666,-1.052 -0.833,-2.632 -1,-3.817 -0.137,-0.976 0.409,-2.224 1.164,-3.59 -1.065,-0.131 -2.058,-0.308 -2.83,-0.509 -2.814,-0.378 -5.118,-0.839 -6.33,-3.612 0.429,-6.568 1.16,-12.871 3.226,-18.656 3.619,-9.509 7.396,-20.575 17.267,-25.552 10.471,-0.04 20.941,-0.166 31.404,-0.378 5.743,3.283 8.824,8.818 11.922,14.101 0.951,1.485 1.303,3.395 2.473,4.625 1.775,-0.858 3.898,-1.31 5.997,-0.846 4.872,0.91 9.805,2.298 13.421,5.953 2.85,4.674 4.996,9.691 4.444,15.775 z" /><path
       id="path106"
       style="fill:#f9a720;fill-opacity:1;fill-rule:nonzero;stroke:none"
       d="m 148.742,99.204 c 1.71,-3.202 0.435,-7.415 -0.838,-10.461 -1.722,-6.446 -8.938,-7.784 -14.693,-8.359 -0.461,0.258 -1.055,0.183 -1.382,0.771 1.561,6.299 3.499,12.84 3.165,20.08 2.59,1.456 5.884,2.307 8.912,1.328 1.888,-0.709 3.689,-1.498 4.836,-3.359" /><path
       id="path108"
       style="fill:none;stroke:#231f20;stroke-width:2;stroke-linecap:butt;stroke-linejoin:miter;stroke-miterlimit:4;stroke-dasharray:none;stroke-opacity:1"
       d="m 148.742,99.204 c 1.71,-3.202 0.435,-7.415 -0.838,-10.461 -1.722,-6.446 -8.938,-7.784 -14.693,-8.359 -0.461,0.258 -1.055,0.183 -1.382,0.771 1.561,6.299 3.499,12.84 3.165,20.08 2.59,1.456 5.884,2.307 8.912,1.328 1.888,-0.709 3.689,-1.498 4.836,-3.359 z" /><path
       id="path110"
       style="fill:#180f0e;fill-opacity:1;fill-rule:nonzero;stroke:none"
       d="m 125.083,99.052 c 1.822,0.252 3.554,0.509 5.329,0.759 0.129,-8.487 -2.367,-16.185 -5.601,-23.384 -2.691,-5.128 -5.458,-10.834 -10.854,-13.789 -9.605,0.194 -19.173,0.319 -28.82,0.372 -7.075,4.673 -10.164,12.529 -13.233,19.804 -1.914,5.459 -3.283,11.175 -3.83,17.238 0.061,0.113 0.116,0.226 0.174,0.338 18.025,-2.422 38.145,-2.439 56.835,-1.338" /><path
       id="path112"
       style="fill:#ffffff;fill-opacity:1;fill-rule:nonzero;stroke:none"
       d="m 26.066,96.78 -0.988,1.869 -1.878,-1.345 -0.821,0.75 1.97,1.373 -2.196,1.09 0.669,0.894 2.107,-1.025 0.693,2.033 1.226,-0.244 -0.665,-2.03 2.472,0.226 0.094,-1.021 -2.472,-0.228 1.025,-1.889 -1.236,-0.453" /><path
       id="path114"
       style="fill:none;stroke:#ffffff;stroke-width:1;stroke-linecap:butt;stroke-linejoin:miter;stroke-miterlimit:4;stroke-dasharray:none;stroke-opacity:1"
       d="m 26.066,96.78 -0.988,1.869 -1.878,-1.345 -0.821,0.75 1.97,1.373 -2.196,1.09 0.669,0.894 2.107,-1.025 0.693,2.033 1.226,-0.244 -0.665,-2.03 2.472,0.226 0.094,-1.021 -2.472,-0.228 1.025,-1.889 z" /><path
       id="path116"
       style="fill:#ffffff;fill-opacity:1;fill-rule:nonzero;stroke:none"
       d="m 181.066,96.78 -0.987,1.869 -1.879,-1.345 -0.821,0.75 1.971,1.373 -2.196,1.09 0.669,0.894 2.106,-1.025 0.693,2.033 1.226,-0.244 -0.664,-2.03 2.471,0.226 0.094,-1.021 -2.471,-0.228 1.025,-1.889 -1.237,-0.453" /><path
       id="path118"
       style="fill:none;stroke:#ffffff;stroke-width:1;stroke-linecap:butt;stroke-linejoin:miter;stroke-miterlimit:4;stroke-dasharray:none;stroke-opacity:1"
       d="m 181.066,96.78 -0.987,1.869 -1.879,-1.345 -0.821,0.75 1.971,1.373 -2.196,1.09 0.669,0.894 2.106,-1.025 0.693,2.033 1.226,-0.244 -0.664,-2.03 2.471,0.226 0.094,-1.021 -2.471,-0.228 1.025,-1.889 z" /></g></svg>