<svg width="24" height="24" viewBox="0 0 24 24" fill="none" xmlns="http://www.w3.org/2000/svg">
<g id="Copy">
<path id="Vector" fill-rule="evenodd" clip-rule="evenodd" d="M3.99996 0.999985C2.35498 0.999985 1 2.35497 1 3.99995V15.9998C1 17.6448 2.35498 18.9998 3.99996 18.9998H4.99795V19.9997C5.00267 20.795 5.32068 21.5563 5.88301 22.1187C6.44534 22.681 7.20667 22.999 8.00191 23.0037H19.9978C20.793 22.999 21.5543 22.681 22.1167 22.1187C22.679 21.5563 22.997 20.795 23.0017 19.9997V8.0039C22.997 7.20865 22.679 6.44732 22.1167 5.88499C21.5543 5.32266 20.793 5.00466 19.9978 4.99993H18.9998V3.99995C18.9998 2.35497 17.6448 0.999985 15.9998 0.999985H3.99996ZM3.99996 2.99996H15.9998C16.5708 2.99996 16.9998 3.42895 16.9998 3.99995V4.99993H8.00191C7.20667 5.00466 6.44534 5.32266 5.88301 5.88499C5.32068 6.44732 5.00267 7.20865 4.99795 8.0039V16.9998H3.99996C3.42897 16.9998 2.99997 16.5708 2.99997 15.9998V3.99995C2.99997 3.42895 3.42897 2.99996 3.99996 2.99996ZM8.00191 6.99991H19.9978C20.1304 6.99704 20.2622 7.02106 20.3853 7.0705C20.5084 7.11994 20.6203 7.19378 20.7141 7.28759C20.8079 7.3814 20.8817 7.49322 20.9312 7.61632C20.9806 7.73943 21.0046 7.87127 21.0017 8.0039V19.9997C21.0046 20.1324 20.9806 20.2642 20.9312 20.3873C20.8817 20.5104 20.8079 20.6222 20.7141 20.7161C20.6203 20.8099 20.5084 20.8837 20.3853 20.9331C20.2622 20.9826 20.1304 21.0066 19.9978 21.0037H8.00191C7.86928 21.0066 7.73744 20.9826 7.61434 20.9331C7.49123 20.8837 7.37941 20.8099 7.28561 20.7161C7.1918 20.6222 7.11795 20.5104 7.06851 20.3873C7.01907 20.2642 6.99506 20.1324 6.99792 19.9997V8.0039C6.99506 7.87127 7.01907 7.73943 7.06851 7.61632C7.11795 7.49322 7.1918 7.3814 7.28561 7.28759C7.37941 7.19378 7.49123 7.11994 7.61434 7.0705C7.73744 7.02106 7.86928 6.99704 8.00191 6.99991Z" fill="black"/>
</g>
</svg>
