<svg width="335" height="435" viewBox="0 0 335 435" fill="none" xmlns="http://www.w3.org/2000/svg">
<path d="M243.157 127.466C241.504 110.801 234.411 97.8549 221.878 88.6272C209.345 79.3995 192.335 74.7857 170.85 74.7857C156.251 74.7857 143.925 76.8516 133.87 80.9834C123.816 84.9775 116.104 90.5554 110.732 97.7172C105.499 104.879 102.882 113.005 102.882 122.095C102.606 129.67 104.19 136.281 107.633 141.927C111.214 147.574 116.104 152.464 122.301 156.595C128.499 160.589 135.661 164.102 143.787 167.131C151.913 170.024 160.589 172.503 169.817 174.569L207.83 183.659C226.285 187.791 243.226 193.3 258.651 200.186C274.076 207.072 287.436 215.542 298.729 225.596C310.023 235.651 318.769 247.495 324.966 261.13C331.302 274.765 334.538 290.397 334.676 308.026C334.538 333.919 327.928 356.368 314.843 375.374C301.897 394.243 283.166 408.911 258.651 419.378C234.273 429.708 204.869 434.872 170.437 434.872C136.281 434.872 106.532 429.639 81.1899 419.172C55.9859 408.704 36.291 393.21 22.1052 372.689C8.05702 352.03 0.688635 326.481 0 296.044H86.5613C87.5254 310.23 91.5883 322.074 98.7501 331.577C106.05 340.943 115.759 348.036 127.879 352.856C140.137 357.539 153.979 359.88 169.404 359.88C184.554 359.88 197.707 357.677 208.863 353.269C220.156 348.862 228.902 342.733 235.1 334.883C241.297 327.032 244.396 318.011 244.396 307.819C244.396 298.316 241.573 290.328 235.926 283.855C230.417 277.382 222.291 271.873 211.548 267.328C200.943 262.783 187.928 258.651 172.503 254.932L126.433 243.363C90.762 234.686 62.5968 221.12 41.9378 202.665C21.2788 184.21 11.0181 159.35 11.1559 128.086C11.0181 102.469 17.8356 80.0882 31.6083 60.9441C45.5187 41.8001 64.5939 26.8567 88.8338 16.114C113.074 5.37135 140.619 0 171.47 0C202.872 0 230.279 5.37135 253.693 16.114C277.244 26.8567 295.562 41.8001 308.646 60.9441C321.73 80.0882 328.478 102.262 328.892 127.466H243.157Z" fill="black"/>
</svg>
