<?xml version="1.0" encoding="UTF-8" standalone="no"?>
<!DOCTYPE svg PUBLIC "-//W3C//DTD SVG 1.1//EN" "http://www.w3.org/Graphics/SVG/1.1/DTD/svg11.dtd">
<svg width="100%" height="100%" viewBox="0 0 19 16" version="1.1" xmlns="http://www.w3.org/2000/svg" xmlns:xlink="http://www.w3.org/1999/xlink" xml:space="preserve" xmlns:serif="http://www.serif.com/" style="fill-rule:evenodd;clip-rule:evenodd;stroke-linejoin:round;stroke-miterlimit:2;">
    <g transform="matrix(1,0,0,1,-1.89812,-4.12567)">
        <path d="M19.2,4.4L2.9,10.7C1.8,11.1 1.8,11.8 2.7,12L6.8,13.3L8.4,18.1C8.6,18.6 8.5,18.8 9,18.8C9.4,18.8 9.6,18.6 9.8,18.4C9.9,18.3 10.8,17.4 11.8,16.4L16,19.5C16.8,19.9 17.3,19.7 17.5,18.8L20.3,5.7C20.6,4.6 19.9,4 19.2,4.4ZM17.1,7.4L9.3,14.5L9,17.8L7.4,13L16.6,7.2C17,6.9 17.4,7.1 17.1,7.4Z" style="fill:none;fill-rule:nonzero;stroke:black;stroke-width:0.3px;"/>
    </g>
</svg>
