<svg width="24" height="24" viewBox="0 0 24 24" fill="none" xmlns="http://www.w3.org/2000/svg">
<g id="Twitter X" clip-path="url(#clip0_11_53)">
<path id="Vector" d="M11.9945 23.9983C18.6196 23.9983 23.9903 18.6276 23.9903 12.0025C23.9903 5.37743 18.6196 0.00674438 11.9945 0.00674438C5.36947 0.00674438 -0.0012207 5.37743 -0.0012207 12.0025C-0.0012207 18.6276 5.36947 23.9983 11.9945 23.9983Z" fill="black"/>
<path id="Vector_2" d="M4.60511 5.05249L10.3389 12.719L4.56897 18.9523H5.86766L10.9194 13.4949L15.0009 18.9523H19.4201L13.3635 10.8546L18.7342 5.05249H17.4355L12.7833 10.0785L9.0243 5.05249H4.60511ZM6.51489 6.009H8.54504L17.51 17.9958H15.4799L6.51489 6.009Z" fill="white"/>
</g>
<defs>
<clipPath id="clip0_11_53">
<rect width="24" height="24" fill="white"/>
</clipPath>
</defs>
</svg>
